<svg width="800" height="320" viewBox="0 0 800 320" fill="none" xmlns="http://www.w3.org/2000/svg">
  <defs>
    <linearGradient id="bg" x1="0" y1="0" x2="0" y2="1">
      <stop offset="0" stop-color="#1c2d64" />
      <stop offset="1" stop-color="#0d153a" />
    </linearGradient>
    <pattern id="stripes" x="0" y="0" width="1" height="0.16" patternUnits="objectBoundingBox">
      <rect width="800" height="8" fill="#314785" opacity="0.7" />
    </pattern>
    <g id="bolt">
      <rect x="-6" y="-20" width="12" height="40" rx="3" fill="#a4bdf5" opacity="0.7" />
      <rect x="-10" y="-24" width="20" height="8" rx="2" fill="#d5e3ff" opacity="0.85" />
    </g>
    <g id="nut">
      <polygon points="0,-10 9,-5 9,5 0,10 -9,5 -9,-5" fill="#d6e4ff" opacity="0.65" />
      <circle cx="0" cy="0" r="3" fill="#7c90d7" opacity="0.8" />
    </g>
    <g id="screw">
      <rect x="-3" y="-18" width="6" height="36" rx="2" fill="#b8ccff" opacity="0.7" />
      <rect x="-6" y="-22" width="12" height="6" rx="1.5" fill="#e5eeff" opacity="0.85" />
    </g>
  </defs>
  <rect width="800" height="320" fill="url(#bg)" />
  <rect width="800" height="320" fill="url(#stripes)" />
  <g opacity="0.25">
    <use href="#bolt" x="90" y="70" transform="rotate(-8 90 70)" />
    <use href="#bolt" x="210" y="150" transform="rotate(18 210 150)" />
    <use href="#bolt" x="640" y="110" transform="rotate(-22 640 110)" />
    <use href="#bolt" x="520" y="250" transform="rotate(10 520 250)" />
    <use href="#bolt" x="360" y="60" transform="rotate(32 360 60)" />
    <use href="#nut" x="160" y="230" transform="rotate(12 160 230)" />
    <use href="#nut" x="460" y="190" transform="rotate(-18 460 190)" />
    <use href="#nut" x="700" y="220" transform="rotate(5 700 220)" />
    <use href="#nut" x="300" y="150" transform="rotate(-28 300 150)" />
    <use href="#screw" x="120" y="150" transform="rotate(24 120 150)" />
    <use href="#screw" x="420" y="90" transform="rotate(-16 420 90)" />
    <use href="#screw" x="560" y="180" transform="rotate(28 560 180)" />
    <use href="#screw" x="720" y="70" transform="rotate(-12 720 70)" />
  </g>
</svg>
